<svg xmlns="http://www.w3.org/2000/svg" viewBox="0 0 932.05 266.7"><defs><style>.cls-1{fill:#eb9699;}.cls-2{fill:#fdc75b;}.cls-3{fill:#f58e94;}.cls-4{fill:#fad387;}.cls-5{fill:none;stroke:#fad387;stroke-miterlimit:10;stroke-width:11px;}.cls-6{fill:#4da691;}</style></defs><title>Asset 3</title><g id="Layer_2" data-name="Layer 2"><g id="header"><g id="flowers"><rect class="cls-1" y="170.19" width="932.05" height="22.76"/><ellipse class="cls-2" cx="54.99" cy="176.64" rx="18.02" ry="9.62" transform="translate(-128.74 155.01) rotate(-65.99)"/><ellipse class="cls-2" cx="46.77" cy="179.4" rx="9.62" ry="18.02" transform="translate(-136.14 149.14) rotate(-65.99)"/><ellipse class="cls-2" cx="50.2" cy="186.5" rx="18.02" ry="9.62" transform="translate(-140.6 156.49) rotate(-65.99)"/><ellipse class="cls-2" cx="56.76" cy="183.59" rx="9.62" ry="17.61" transform="translate(-134.04 160.75) rotate(-65.99)"/><circle class="cls-3" cx="52.38" cy="181.61" r="10.72"/><ellipse class="cls-2" cx="133.25" cy="180.61" rx="18.02" ry="9.62" transform="translate(-55.86 59.73) rotate(-20.99)"/><ellipse class="cls-2" cx="125.49" cy="176.75" rx="9.62" ry="18.02" transform="translate(-54.99 56.69) rotate(-20.99)"/><ellipse class="cls-2" cx="122.89" cy="184.19" rx="18.02" ry="9.62" transform="matrix(0.93, -0.36, 0.36, 0.93, -57.83, 56.26)"/><ellipse class="cls-2" cx="129.59" cy="186.78" rx="9.62" ry="17.61" transform="translate(-58.31 58.83) rotate(-20.99)"/><circle class="cls-3" cx="127.89" cy="182.28" r="10.72"/><ellipse class="cls-2" cx="210.04" cy="182.79" rx="9.62" ry="18.02" transform="translate(25.9 391.64) rotate(-89.63)"/><ellipse class="cls-2" cx="204.22" cy="176.36" rx="18.02" ry="9.62" transform="translate(26.54 379.43) rotate(-89.63)"/><ellipse class="cls-2" cx="199.08" cy="182.35" rx="9.62" ry="18.02" transform="translate(15.45 380.25) rotate(-89.63)"/><ellipse class="cls-2" cx="204.38" cy="187.2" rx="17.61" ry="9.62" transform="translate(15.87 390.37) rotate(-89.63)"/><circle class="cls-3" cx="204.44" cy="182.39" r="10.72"/><ellipse class="cls-2" cx="286.12" cy="184.67" rx="9.62" ry="18.02" transform="translate(13.53 388.79) rotate(-69.66)"/><ellipse class="cls-2" cx="282.85" cy="176.64" rx="18.02" ry="9.62" transform="translate(18.92 380.47) rotate(-69.66)"/><ellipse class="cls-2" cx="275.98" cy="180.52" rx="9.62" ry="18.02" transform="translate(10.8 376.56) rotate(-69.66)"/><ellipse class="cls-2" cx="279.3" cy="186.88" rx="17.61" ry="9.62" transform="translate(7.01 383.84) rotate(-69.66)"/><circle class="cls-3" cx="281" cy="182.38" r="10.72"/><ellipse class="cls-2" cx="657.4" cy="176.64" rx="18.02" ry="9.62" transform="translate(228.59 705.32) rotate(-65.99)"/><ellipse class="cls-2" cx="649.18" cy="179.4" rx="9.62" ry="18.02" transform="translate(221.2 699.45) rotate(-65.99)"/><ellipse class="cls-2" cx="652.61" cy="186.5" rx="18.02" ry="9.62" transform="translate(216.74 706.79) rotate(-65.99)"/><ellipse class="cls-2" cx="659.18" cy="183.59" rx="9.62" ry="17.61" transform="translate(223.3 711.06) rotate(-65.99)"/><circle class="cls-3" cx="654.79" cy="181.61" r="10.72"/><ellipse class="cls-2" cx="735.67" cy="180.61" rx="18.02" ry="9.62" transform="translate(-15.87 275.56) rotate(-20.99)"/><ellipse class="cls-2" cx="727.9" cy="176.75" rx="9.62" ry="18.02" transform="translate(-15 272.52) rotate(-20.99)"/><ellipse class="cls-2" cx="725.3" cy="184.19" rx="18.02" ry="9.62" transform="translate(-17.84 272.09) rotate(-20.99)"/><ellipse class="cls-2" cx="732.01" cy="186.78" rx="9.62" ry="17.61" transform="translate(-18.32 274.66) rotate(-20.99)"/><circle class="cls-3" cx="730.31" cy="182.28" r="10.72"/><ellipse class="cls-2" cx="812.45" cy="182.79" rx="9.62" ry="18.02" transform="translate(624.43 994.04) rotate(-89.63)"/><ellipse class="cls-2" cx="806.63" cy="176.36" rx="18.02" ry="9.62" transform="translate(625.07 981.84) rotate(-89.63)"/><ellipse class="cls-2" cx="801.5" cy="182.35" rx="9.62" ry="18.02" transform="translate(613.98 982.65) rotate(-89.63)"/><ellipse class="cls-2" cx="806.8" cy="187.2" rx="17.61" ry="9.62" transform="translate(614.4 992.77) rotate(-89.63)"/><circle class="cls-3" cx="806.85" cy="182.39" r="10.72"/><ellipse class="cls-2" cx="888.54" cy="184.67" rx="9.62" ry="18.02" transform="translate(406.6 953.66) rotate(-69.66)"/><ellipse class="cls-2" cx="885.26" cy="176.64" rx="18.02" ry="9.62" transform="translate(411.99 945.34) rotate(-69.66)"/><ellipse class="cls-2" cx="878.39" cy="180.52" rx="9.62" ry="18.02" transform="translate(403.87 941.43) rotate(-69.66)"/><ellipse class="cls-2" cx="881.72" cy="186.88" rx="17.61" ry="9.62" transform="translate(400.07 948.7) rotate(-69.66)"/><circle class="cls-3" cx="883.41" cy="182.38" r="10.72"/></g><g id="logo"><circle class="cls-4" cx="469.03" cy="133.35" r="113.91"/><circle class="cls-5" cx="469.03" cy="133.35" r="127.85"/><path class="cls-6" d="M440.59,181.82c-.94.42-3.85,2.12-4.56.54-1.33-2.94,2-17.1-3.39-29.07-2.14-4.73-7.46-4.47-12.19-2.34-9.55,4.32-24,12.88-18.61,24.85,3.74,8.3,14.6,14.14,15.31,15.72.29.63-.3,1-1.66,1.64l-15,6.78c-5.36,2.42-11.1-6.37-17.26-20-20.31-45,1.45-79.95,6.07-82,3.46-1.57,37.34,1.21,59.36,50,12.66,28,6.87,27.24,3.71,28.66ZM391.9,147.66a2,2,0,0,0,2.9,1.1c1.89-.86,10.85-8.19,20.09-12.36,3.68-1.67,5.12-3,3.79-5.89-2.94-6.51-16.88-16.66-20.87-14.85C392.14,118.22,388.44,140,391.9,147.66Z"/><path class="cls-6" d="M437.84,118.65c-2.67-1-6.64-.19,8.47-40.21,19.91-52.71,24.74-48.69,26.55-48L500.5,40.87c18.89,7.13,18.46,17,15.88,23.8C512,76.41,497.21,78.64,496,82c-1.41,3.74,12.5,18.87,5.57,37.22-3.95,10.46-14.08,18.22-31.58,11.61Zm29.16-32c-3.48.51-5.43.51-6.76,4-6.13,16.22-2.84,19.78,5.91,23.08,7.68,2.91,16.6,2.86,19.74-5.46,2.87-7.58-2.49-21.8-5.37-22.89-1.39-.52-3.76-.07-5.17.13Zm18.76-16.08c3.94-1.07,10.39-4.61,12.05-9,1.93-5.13-2.07-8.1-6.12-9.63-10.56-4-17.1-1.22-23.39,15.43-.8,2.13-2.06,4.83.92,6,1.28.48,4.5.35,6.65-.17Z"/><path class="cls-6" d="M473.47,165.89c9.44-25,33.81-47,61.8-36.42,10,3.79,23.85,13.88,19.15,26.32-2.52,6.68-8.57,8.74-15.83,6-4.72-1.78,5.71-10.22-8.92-15.75-16.82-6.35-30.45,8.12-35.89,22.52-8.31,22,3.32,36.53,13.34,40.31,18.78,7.1,26.74-9.11,27.78-8.72,1.61.61-.95,10.17-1.38,11.32-6.44,17.05-23.32,22-39.44,15.91C467.93,217.5,464.68,189.16,473.47,165.89Z"/></g></g></g></svg>