<svg xmlns="http://www.w3.org/2000/svg" viewBox="0 0 266.7 266.7">
  <defs>
    <style>
      .cls-1 {
        fill: #fad387;
      }

      .cls-2 {
        fill: none;
        stroke: #fad387;
        stroke-miterlimit: 10;
        stroke-width: 11px;
      }

      .cls-3 {
        fill: #4da691;
      }
    </style>
  </defs>
  <title>logo</title>
  <g id="Layer_2" data-name="Layer 2">
    <g id="header">
      <g id="logo">
        <circle class="cls-1" cx="133.35" cy="133.35" r="113.91"/>
        <circle class="cls-2" cx="133.35" cy="133.35" r="127.85"/>
        <g>
          <path class="cls-3" d="M104.91,181.82c-.94.42-3.85,2.12-4.56.54-1.33-2.94,2-17.1-3.39-29.07-2.14-4.73-7.46-4.47-12.19-2.34-9.55,4.32-24,12.88-18.61,24.85,3.74,8.3,14.6,14.14,15.31,15.72.29.63-.29,1-1.66,1.64l-15,6.78c-5.36,2.42-11.09-6.37-17.26-20C27.22,135,49,100,53.6,97.89c3.46-1.57,37.34,1.21,59.36,50,12.66,28,6.87,27.24,3.72,28.66ZM56.23,147.66a2,2,0,0,0,2.89,1.1C61,147.9,70,140.57,79.21,136.4c3.68-1.67,5.12-3,3.79-5.89-2.94-6.51-16.88-16.66-20.87-14.85C56.46,118.22,52.76,140,56.23,147.66Z"/>
          <path class="cls-3" d="M102.16,118.65c-2.67-1-6.64-.19,8.48-40.21,19.91-52.71,24.73-48.69,26.54-48l27.64,10.44c18.89,7.13,18.46,17,15.88,23.8-4.43,11.74-19.17,14-20.42,17.28-1.41,3.74,12.5,18.87,5.57,37.22-3.95,10.46-14.08,18.22-31.58,11.61Zm29.16-32c-3.48.51-5.43.51-6.76,4-6.13,16.22-2.84,19.78,5.91,23.08,7.68,2.91,16.6,2.86,19.74-5.46,2.87-7.58-2.49-21.8-5.37-22.89-1.39-.52-3.76-.07-5.17.13Zm18.76-16.08c3.94-1.07,10.39-4.61,12-9,1.93-5.13-2.07-8.1-6.12-9.63-10.56-4-17.1-1.22-23.39,15.43-.8,2.13-2.06,4.83.92,6,1.28.48,4.5.35,6.65-.17Z"/>
          <path class="cls-3" d="M137.79,165.89c9.44-25,33.81-47,61.8-36.42,10,3.79,23.85,13.88,19.15,26.32-2.52,6.68-8.57,8.74-15.82,6-4.73-1.78,5.7-10.22-8.93-15.75-16.82-6.35-30.45,8.12-35.89,22.52-8.3,22,3.32,36.53,13.34,40.31,18.78,7.1,26.74-9.11,27.78-8.72,1.62.61-.95,10.17-1.38,11.32-6.44,17.05-23.31,22-39.44,15.91C132.25,217.5,129,189.16,137.79,165.89Z"/>
        </g>
      </g>
    </g>
  </g>
</svg>
